# xmcd
#
# Track frame offsets: 
#        150
#        19163
#        41543
#        60310
#        84320
#        101807
#
# Disc length: 1683 seconds
#
# Revision: 0
# Processed by: cddbd v1.5.2PL0 Copyright (c) Steve Scherf et al.
# Submitted via: ExactAudioCopyFreeDBPlugin 1.0
#
DISCID=3f069106
DTITLE=B.B des Vouex - Blue Light Forever
DYEAR=1900
DGENRE=Blues
TTITLE0=Amazing Grace
TTITLE1=Yesterday Once More
TTITLE2=Fly Me To The Moon
TTITLE3=Rainy day and Monday
TTITLE4=Over the rainbow
TTITLE5=U've got a friend
EXTD=
EXTT0=
EXTT1=
EXTT2=
EXTT3=
EXTT4=
EXTT5=
PLAYORDER=
